inDegrees=no
num_controls=7
num_derivatives=13
num_iterations=90
num_multipliers=7
num_parameters=0
num_slacks=7
num_states=26
objective=0.435272
objective_accelerations=0.026400
objective_balance=0.001944
objective_effort=0.014175
objective_height=0.386801
objective_ligament=0.005952
solver_duration=1531.001019
status=Solve_Succeeded
success=true
DataType=double
version=3
OpenSimVersion=4.5
endheader
time	/jointset/ground_pelvis/pelvis_tilt/value	/jointset/ground_pelvis/pelvis_tx/value	/jointset/ground_pelvis/pelvis_ty/value	/jointset/hip_l/hip_flexion_l/value	/jointset/hip_l/hip_adduction_l/value	/jointset/hip_l/hip_rotation_l/value	/jointset/back/lumbar_extension/value	/jointset/patellofemoral_l/patellar_flexion_l/value	/jointset/knee_l/knee_flexion_l/value	/jointset/knee_l/knee_adduction_l/value	/jointset/knee_l/knee_rotation_l/value	/jointset/ankle_l/ankle_angle_l/value	/jointset/subtalar_l/subtalar_angle_l/value	/jointset/ground_pelvis/pelvis_tilt/speed	/jointset/ground_pelvis/pelvis_tx/speed	/jointset/ground_pelvis/pelvis_ty/speed	/jointset/hip_l/hip_flexion_l/speed	/jointset/hip_l/hip_adduction_l/speed	/jointset/hip_l/hip_rotation_l/speed	/jointset/back/lumbar_extension/speed	/jointset/patellofemoral_l/patellar_flexion_l/speed	/jointset/knee_l/knee_flexion_l/speed	/jointset/knee_l/knee_adduction_l/speed	/jointset/knee_l/knee_rotation_l/speed	/jointset/ankle_l/ankle_angle_l/speed	/jointset/subtalar_l/subtalar_angle_l/speed	/forceset/tau_hip_flexion_l	/forceset/tau_hip_adduction_l	/forceset/tau_hip_rotation_l	/forceset/tau_knee_flexion_l	/forceset/tau_ankle_angle_l	/forceset/tau_subtalar_angle_l	/forceset/tau_lumbar_extension	lambda_cid13_p0	lambda_cid13_p1	lambda_cid13_p2	lambda_cid13_p3	lambda_cid13_p4	lambda_cid13_p5	lambda_cid14_p0	/jointset/ground_pelvis/pelvis_tilt/accel	/jointset/ground_pelvis/pelvis_tx/accel	/jointset/ground_pelvis/pelvis_ty/accel	/jointset/hip_l/hip_flexion_l/accel	/jointset/hip_l/hip_adduction_l/accel	/jointset/hip_l/hip_rotation_l/accel	/jointset/back/lumbar_extension/accel	/jointset/patellofemoral_l/patellar_flexion_l/accel	/jointset/knee_l/knee_flexion_l/accel	/jointset/knee_l/knee_adduction_l/accel	/jointset/knee_l/knee_rotation_l/accel	/jointset/ankle_l/ankle_angle_l/accel	/jointset/subtalar_l/subtalar_angle_l/accel	gamma_cid13_p0	gamma_cid13_p1	gamma_cid13_p2	gamma_cid13_p3	gamma_cid13_p4	gamma_cid13_p5	gamma_cid14_p0
0	0.04991827448530876	0.1070312805979403	0.9036448113828558	0.1266922784136757	-0.3635735812910698	-0.232623675391129	-0.2144969558742783	0.2051545070141857	0.2051545070141877	-0.1609289957651892	-0.1643847364417936	0.09024313228550125	0.08613259757854067	0	0	0	0	0	0	0	0	0	0	0	0	0	0.07056367246207629	-0.05542647284645227	-0.003024883983248818	-0.1977766597412688	0.1315528342016149	-0.06277667760474313	-0.0111260589456477	13.09413438405995	24.12391433284809	-3.159191692151797	-18.38901941778763	-439.9434172266926	-60.89924434499154	-26.29002118325108	0.177331360361018	-0.158977594378519	-0.4840249557696358	4.947505002663991	-0.2931302212812731	2.415100022006166	-2.487036540406295	8.340382995401992	8.340382995404203	1.544154023605408	-0.7420669077153189	3.949638089459752	0.8617546768708236	-2.764260592114202e-09	2.39471614721303e-07	-9.211211126421077e-08	2.66358209772494e-08	4.152813827245245e-08	1.778990186335354e-07	2.920026701971029e-08
0.01	0.04992987656812232	0.1070231366544094	0.9036213539772785	0.1269316322492272	-0.3635875077147755	-0.2324972948882102	-0.2146230130739862	0.2055613956363966	0.2055613956364457	-0.1608533832845086	-0.1644125750116526	0.09043624429530636	0.08617506971147926	0.002230512328258358	-0.001662694441348388	-0.004682956446120124	0.04777879368007278	-0.002781936488022383	0.02532822026983726	-0.02499624953174543	0.08096075349653896	0.08096075349652741	0.0150041421978918	-0.005368727472445973	0.03836611090345763	0.008420410842233814	0.06881584261740116	-0.06776772422053907	-0.002393317668278977	-0.1946727817693525	0.1222920151807219	-0.04957715237048199	-0.009831454962344508	10.8443101260528	18.47899788502544	-1.909379147351326	-16.76148047269016	-440.7363439188163	-72.55578423954761	-26.29027114459119	0.2324247625589477	-0.1749959022631926	-0.4591439830013653	4.679269874809897	-0.270238964722123	2.599521555598078	-2.473640597924867	7.91137004440044	7.911370044398118	1.460818271011813	-0.4044475938267538	3.74165841363931	0.8210554323219981	-1.813118158005117e-08	4.624937939300151e-07	-7.003495041813115e-08	5.654024725278769e-08	-6.17016932859228e-08	1.967769592904033e-07	5.286933378261006e-08
0.02	0.04996108649291575	0.106997349659815	0.9035513244084464	0.1276460146863744	-0.3636291562237905	-0.2321160644773497	-0.2149925770566902	0.2067653814971289	0.2067653814971308	-0.1606312745911738	-0.1644881352415539	0.09100532957871851	0.08629952018172481	0.003921568396569292	-0.003528610212712858	-0.009314432650981825	0.09500572032539842	-0.005544417062412555	0.05096998158470084	-0.04870135659813188	0.1594194476978996	0.1594194476978943	0.02929924252100688	-0.009544332017592876	0.07519465472093496	0.01639566746135852	0.06706801277228798	-0.08010897559465116	-0.001761751353621214	-0.1915689037976571	0.113031196159735	-0.03637762713627262	-0.008536850979310074	8.632656199678035	12.83549392757023	-0.6690411188951914	-15.22907012184408	-440.8985944433065	-84.07770562855715	-26.29062892752275	0.06944010837158121	-0.1996218603817844	-0.4737289075179497	4.837131595714577	-0.2892390385548356	2.477808231011438	-2.228808047334473	7.839971136366338	7.839971136372088	1.402345648650054	-0.5034423222555142	3.642124672263632	0.772723832248975	-3.349810256798813e-08	6.855159731387272e-07	-4.795778957205155e-08	8.644467352832598e-08	-1.64931524844298e-07	2.156548999472712e-07	7.653840054550983e-08
0.03	0.05000702470769631	0.106952113692255	0.9034351494702011	0.1288294209554619	-0.3636979980224143	-0.2314802216756238	-0.2155932891350812	0.2087424218117159	0.2087424218117097	-0.1602687869263575	-0.1646027396170104	0.09193571126967344	0.08650214373701434	0.005245602089402552	-0.0055291650634305	-0.01391709330590031	0.1414924411850886	-0.008193848724314069	0.07597141329900263	-0.07129983329356404	0.2356262489504162	0.2356262489503833	0.04315074448828322	-0.01343666370285227	0.110679084701397	0.02410647746065578	0.06564950945730612	-0.07519281949325114	-0.001401952777050469	-0.1897305152050979	0.1103216430384862	-0.03923363947496876	-0.007444213961997636	7.551561041121007	14.21699705322932	-0.8342851041655128	-14.18110875901596	-441.325763488148	-80.85959631707749	-26.29062473749459	0.1608146829721955	-0.2018421523941301	-0.453048794041889	4.526975390806792	-0.2483733362189902	2.477264720011731	-2.254183612616001	7.456664276233409	7.456664276225744	1.369530665221174	-0.341170451793217	3.471228294179036	0.7667725934281867	-3.766576496807269e-08	7.197767408018527e-07	-5.675802188408285e-08	9.6096411787353e-08	-2.257325123547599e-07	2.268182925535986e-07	8.346190746417526e-08
